<?xml version="1.0" standalone="no"?>
<!DOCTYPE svg PUBLIC "-//W3C//DTD SVG 20010904//EN" "http://www.w3.org/TR/2001/REC-SVG-20010904/DTD/svg10.dtd">
<svg version="1.0" xmlns="http://www.w3.org/2000/svg"
    width="500.000000pt" height="500.000000pt" viewBox="0 0 500.000000 500.000000"
    preserveAspectRatio="xMidYMid meet">

    <g transform="translate(0.000000,500.000000) scale(0.100000,-0.100000)"
        fill="#000000" stroke="none">
        <path
            d="M2706 3759 c-27 -80 -106 -350 -106 -362 0 -10 21 -21 65 -32 36 -10
68 -16 71 -13 3 3 13 34 22 69 12 44 23 65 35 67 21 4 22 -15 2 -88 -8 -30
-15 -58 -15 -61 0 -11 131 -42 139 -33 5 5 21 56 36 113 30 118 28 159 -12
191 -28 22 -91 27 -123 10 -17 -9 -17 -7 -4 43 7 28 14 58 14 65 0 25 -117 54
-124 31z" />
        <path
            d="M2033 3704 c-58 -26 -58 -26 -42 -74 9 -25 9 -34 -1 -40 -20 -12 26
-140 50 -140 12 0 21 -10 25 -28 20 -94 78 -121 169 -79 31 14 56 28 56 30 0
2 -7 25 -16 51 -15 44 -18 47 -47 44 -41 -4 -51 27 -13 41 l25 10 -22 66 c-20
63 -23 66 -48 61 -24 -5 -28 -1 -39 39 -15 52 -22 54 -97 19z" />
        <path
            d="M2393 3691 c-71 -18 -111 -67 -98 -121 10 -38 34 -60 77 -66 58 -10
45 -25 -15 -18 l-53 6 6 -53 5 -54 56 -9 c117 -18 209 21 209 89 0 43 -26 73
-75 84 l-40 10 53 -2 52 -2 0 31 c0 54 -12 93 -29 98 -37 10 -118 14 -148 7z" />
        <path
            d="M1782 3474 c-72 -36 -106 -87 -100 -148 7 -58 52 -120 106 -147 39
-19 48 -20 87 -9 45 13 117 66 136 102 8 15 5 26 -16 54 l-27 35 -26 -27 c-39
-38 -69 -57 -82 -49 -7 4 19 28 60 57 l71 50 -24 31 c-59 76 -108 90 -185 51z
m78 -129 c-13 -16 -40 -20 -40 -7 0 14 12 22 33 22 16 0 17 -3 7 -15z" />
        <path
            d="M3085 3489 c-118 -69 -140 -210 -43 -282 76 -57 156 -57 213 0 84 85
75 196 -22 263 -39 26 -118 37 -148 19z m65 -164 c17 -20 5 -45 -20 -45 -11 0
-23 7 -26 15 -6 15 11 45 26 45 4 0 13 -7 20 -15z" />
        <path
            d="M3369 3229 c-41 -28 -111 -80 -157 -116 -89 -70 -88 -67 -39 -128
l25 -30 45 32 45 33 6 -31 c3 -17 21 -46 40 -65 29 -29 41 -34 79 -34 82 0
187 93 187 164 0 42 -35 96 -71 109 -18 7 -27 17 -24 25 5 13 -43 91 -56 92
-3 0 -39 -23 -80 -51z m59 -185 c4 -26 -26 -40 -45 -21 -8 7 -11 21 -7 31 9
24 48 17 52 -10z" />
        <path
            d="M1509 3223 c-33 -20 -59 -63 -59 -98 0 -19 -4 -26 -14 -22 -8 3 -26
-11 -45 -38 l-30 -42 57 -45 c56 -44 260 -188 266 -188 4 0 66 87 66 93 0 2
-18 17 -40 32 -22 15 -40 31 -40 35 0 4 11 12 24 18 13 6 33 31 46 56 27 57
18 95 -38 148 -69 67 -139 85 -193 51z m116 -173 c0 -16 -6 -26 -18 -28 -19
-4 -32 20 -23 44 9 25 41 13 41 -16z" />
        <path
            d="M1563 2742 c-19 -12 -43 -77 -43 -117 0 -19 9 -58 19 -86 l20 -51
-31 -76 c-34 -86 -39 -152 -14 -199 l16 -31 -41 -7 c-24 -4 -37 -11 -32 -16 5
-5 23 -5 43 1 27 8 37 6 52 -7 18 -16 17 -18 -37 -46 -76 -38 -62 -49 15 -12
57 27 61 28 77 12 16 -16 15 -19 -17 -52 -19 -19 -28 -35 -22 -35 7 0 25 14
40 31 27 30 30 31 65 20 20 -7 39 -16 41 -19 2 -4 -5 -45 -16 -92 -17 -72 -19
-107 -15 -225 5 -147 16 -196 52 -240 20 -27 25 -28 128 -31 59 -2 111 -5 115
-8 4 -2 14 -1 21 3 7 5 25 3 40 -5 17 -9 54 -12 111 -9 242 10 480 24 517 30
27 5 54 3 73 -5 24 -10 33 -10 45 0 10 8 15 9 15 2 0 -21 38 -34 62 -21 16 9
23 9 26 0 7 -21 62 -12 87 15 l25 27 44 -24 c42 -22 46 -22 63 -7 13 12 23 14
33 8 24 -15 49 -12 83 13 18 12 33 25 35 28 1 3 42 -2 90 -12 113 -24 138 -23
173 2 70 49 13 100 -131 118 -46 6 -85 12 -86 14 -2 2 8 30 21 63 30 73 32
137 5 182 -25 41 -75 72 -117 72 l-31 0 14 53 c7 28 14 62 14 75 0 20 5 22 48
22 61 0 131 20 172 50 90 64 94 262 6 307 -56 28 -85 63 -52 63 26 0 66 59 66
96 0 41 -27 72 -89 104 -87 44 -179 35 -196 -19 -4 -13 -22 -23 -55 -31 -42
-10 -52 -10 -65 4 -34 34 -163 32 -222 -4 -55 -33 -65 -131 -17 -170 31 -27 7
-125 -66 -270 -38 -75 -99 -167 -127 -193 -20 -17 -21 -17 -34 15 -22 53 -16
115 20 192 44 94 33 156 -28 156 -35 0 -63 -30 -98 -105 -43 -91 -37 -164 22
-307 6 -14 2 -18 -17 -18 -17 0 -47 22 -94 68 -38 37 -82 77 -99 89 -20 15
-11 12 28 -8 31 -17 63 -29 70 -26 6 2 -8 14 -33 27 -72 36 -73 38 -44 76 40
52 41 103 5 208 -37 106 -38 126 -10 210 25 77 20 112 -18 127 -54 20 -115 -6
-204 -88 l-62 -58 -129 0 c-128 0 -130 0 -151 26 -12 15 -30 40 -39 57 -28 52
-100 86 -135 64z m129 -94 c20 -32 43 -55 64 -64 41 -17 236 -19 267 -3 12 7
45 33 72 59 28 26 60 52 72 58 18 10 17 4 -12 -37 -38 -57 -71 -138 -61 -149
4 -3 21 1 37 10 29 17 29 17 29 -7 0 -29 15 -33 29 -7 9 14 10 13 11 -10 0
-29 17 -37 36 -18 16 16 28 -4 58 -95 32 -99 32 -121 1 -168 -28 -40 -31 -42
-69 -27 -17 6 -27 6 -32 -1 -3 -6 3 -13 15 -16 28 -7 26 -21 -5 -35 -20 -9
-30 -9 -46 1 -24 15 -36 7 -18 -14 10 -12 8 -16 -11 -24 -17 -6 -29 -5 -40 5
-18 16 -34 7 -19 -11 15 -18 -111 -69 -169 -69 -44 0 -231 59 -231 73 0 4 5
12 12 19 20 20 -1 26 -22 7 -16 -15 -23 -16 -33 -6 -9 10 -8 14 6 22 26 15 11
30 -20 18 -18 -6 -30 -6 -36 0 -11 11 -5 14 46 25 30 7 37 26 9 26 -9 0 -32
-4 -50 -9 -30 -9 -33 -7 -47 19 -24 46 -19 113 15 190 17 38 30 75 30 84 0 18
15 21 25 6 3 -5 13 -10 21 -10 11 0 13 6 9 20 -10 32 4 43 32 25 14 -9 27 -15
29 -12 15 14 -31 142 -65 181 -15 18 -15 18 7 7 13 -7 37 -35 54 -63z m1595
-144 c8 -22 -13 -64 -33 -64 -13 0 -14 3 -4 15 7 8 10 25 6 40 -5 19 -2 25 9
25 9 0 18 -7 22 -16z m-193 -30 c9 -8 16 -17 16 -19 0 -14 -15 -37 -31 -45
-16 -9 -17 -7 -12 25 4 24 2 35 -6 35 -7 0 -9 5 -6 10 9 14 21 12 39 -6z
m-491 -127 c8 -24 3 -42 -28 -109 -45 -95 -44 -126 4 -236 18 -41 35 -89 38
-107 7 -46 -20 -132 -59 -185 l-33 -45 -5 70 c-4 58 -2 75 14 97 24 34 17 83
-23 178 -48 113 -57 168 -36 231 42 125 104 177 128 106z m-284 -275 c116 -88
173 -202 174 -347 0 -100 -12 -155 -46 -206 -20 -29 -29 -34 -67 -36 -46 -2
-185 -20 -229 -29 -21 -5 -23 -3 -12 10 19 23 -14 34 -38 12 -20 -18 -41 -22
-23 -4 16 16 15 28 -3 28 -7 0 -19 -8 -24 -17 -6 -10 -11 -13 -11 -6 0 18 48
52 84 59 24 4 42 0 67 -15 39 -24 49 -26 49 -8 0 6 -17 21 -38 32 -44 24 -82
91 -82 145 0 52 45 135 86 160 19 12 34 26 34 31 0 28 -73 -21 -107 -72 -35
-53 -45 -158 -19 -207 l16 -31 -35 -7 c-20 -3 -38 -4 -40 -2 -3 3 0 41 6 85
12 84 4 236 -12 231 -5 -2 -11 -68 -13 -148 -2 -99 -9 -162 -20 -197 -16 -50
-36 -71 -36 -38 0 20 -10 19 -26 -2 -13 -17 -13 -17 -14 0 0 9 -3 17 -6 17 -4
0 -13 -8 -21 -17 -12 -16 -13 -9 -9 52 16 208 18 305 7 305 -7 0 -11 -23 -12
-62 0 -35 -4 -83 -7 -106 l-7 -44 -25 27 c-20 22 -26 40 -30 97 -3 45 -10 73
-17 76 -21 6 -17 -47 22 -318 5 -30 4 -32 -6 -16 -12 19 -12 19 -25 1 -13 -18
-14 -17 -14 9 0 18 -4 26 -12 23 -7 -2 -12 -12 -12 -21 3 -25 -14 -19 -30 13
-39 74 -48 297 -17 424 10 43 20 80 23 82 2 3 30 -4 61 -15 77 -27 128 -25
216 10 l74 29 50 -44 c27 -25 54 -42 60 -38 6 4 -9 24 -38 49 l-49 43 28 11
c24 9 34 5 86 -30 37 -25 61 -36 65 -29 4 6 5 12 4 13 -2 2 -26 17 -52 35 -44
30 -47 34 -30 46 21 15 28 12 102 -43z m-438 -490 c-10 -36 -31 -40 -31 -5 0
15 -3 39 -7 53 l-6 25 25 -23 c20 -19 24 -29 19 -50z m-3 -72 c-1 -20 -5 -27
-11 -21 -5 5 -6 18 -2 30 9 30 14 26 13 -9z" />
        <path
            d="M1683 2430 c-27 -11 -43 -40 -43 -79 0 -64 84 -95 128 -48 31 33 27
64 -12 103 -36 36 -39 37 -73 24z m52 -29 c3 -5 1 -12 -5 -16 -16 -10 -11 -53
8 -64 16 -9 16 -10 -1 -16 -51 -20 -92 29 -68 81 11 24 54 34 66 15z" />
        <path
            d="M1990 2405 c-49 -52 -17 -125 54 -125 49 0 76 24 76 69 0 73 -81 108
-130 56z m78 -4 c10 -6 10 -10 -3 -21 -20 -16 -19 -39 2 -62 15 -17 15 -18
-11 -18 -43 0 -66 17 -66 50 0 42 46 72 78 51z" />
        <path
            d="M1828 2239 c-24 -14 -22 -35 5 -63 32 -32 19 -56 -29 -56 -35 0 -40
5 -59 64 -4 15 -8 17 -18 7 -9 -9 -7 -20 8 -49 25 -46 83 -66 112 -40 17 15
20 15 42 -3 38 -31 78 -23 134 29 24 23 36 52 22 52 -4 0 -22 -16 -42 -35 -39
-38 -76 -45 -109 -21 -19 14 -18 15 9 43 30 32 35 68 11 77 -24 9 -67 7 -86
-5z" />
        <path
            d="M1844 1196 c-3 -8 -4 -29 -2 -48 3 -29 7 -33 36 -36 18 -2 32 1 32 7
0 6 -11 11 -25 11 -14 0 -25 5 -25 10 0 6 11 10 25 10 14 0 25 5 25 10 0 6
-11 10 -25 10 -14 0 -25 5 -25 10 0 6 11 10 25 10 14 0 25 5 25 10 0 15 -60
12 -66 -4z" />
        <path
            d="M1955 1200 c-3 -5 1 -10 9 -10 12 0 16 -10 16 -41 0 -24 4 -38 10
-34 6 3 10 22 10 41 0 19 5 34 10 34 6 0 10 5 10 10 0 6 -13 10 -29 10 -17 0
-33 -4 -36 -10z" />
        <path
            d="M2153 1198 c-15 -19 -23 -61 -15 -75 11 -18 74 -14 67 4 -3 8 -5 19
-5 24 0 5 -3 8 -7 8 -20 -3 -24 2 -13 16 12 14 6 35 -9 35 -5 0 -13 -6 -18
-12z m12 -58 c3 -5 1 -10 -4 -10 -6 0 -11 5 -11 10 0 6 2 10 4 10 3 0 8 -4 11
-10z" />
        <path
            d="M2338 1191 c-16 -13 -19 -24 -14 -44 8 -35 53 -48 73 -22 19 27 16
35 -13 35 -23 0 -25 -2 -13 -16 12 -14 11 -16 -6 -13 -26 5 -32 44 -9 53 10 4
22 2 28 -4 15 -15 26 -12 20 4 -9 22 -42 26 -66 7z" />
        <path
            d="M2461 1158 c1 -29 4 -43 6 -30 5 27 33 29 40 2 9 -34 20 -22 20 20 0
41 -16 60 -51 60 -13 0 -16 -11 -15 -52z m49 22 c0 -5 -9 -10 -20 -10 -11 0
-20 5 -20 10 0 6 9 10 20 10 11 0 20 -4 20 -10z" />
        <path
            d="M2584 1185 c-33 -50 19 -100 60 -59 22 21 20 61 -3 74 -29 15 -39 13
-57 -15z m51 -26 c0 -15 -7 -25 -18 -27 -22 -4 -33 24 -17 43 18 21 35 13 35
-16z" />
        <path
            d="M2714 1185 c-33 -50 19 -100 60 -59 22 21 20 61 -3 74 -29 15 -39 13
-57 -15z m51 -26 c0 -15 -7 -25 -18 -27 -22 -4 -33 24 -17 43 18 21 35 13 35
-16z" />
        <path
            d="M2840 1162 c0 -29 5 -52 10 -52 6 0 10 12 10 26 0 21 3 24 13 15 10
-8 17 -7 25 1 9 9 12 7 12 -9 0 -12 5 -25 10 -28 6 -4 10 12 10 39 0 48 -9 57
-30 31 -12 -14 -16 -13 -37 6 l-23 22 0 -51z" />
        <path d="M2989 1208 c-7 -44 -2 -98 8 -98 16 0 18 86 3 95 -5 3 -10 5 -11 3z" />
        <path
            d="M3127 1203 c-4 -3 -7 -16 -7 -27 -1 -21 -1 -21 -19 2 -11 12 -24 22
-30 22 -14 0 -15 -77 -1 -85 6 -4 10 7 10 27 l0 33 23 -32 c12 -18 25 -33 30
-33 4 0 7 23 7 50 0 51 -1 55 -13 43z" />
        <path
            d="M3212 1194 c-44 -30 -18 -93 33 -80 32 8 35 46 4 46 -19 0 -20 -2 -8
-16 12 -14 11 -16 -6 -13 -22 5 -32 36 -17 51 6 6 17 6 31 -1 13 -7 21 -8 21
-2 0 21 -36 31 -58 15z" />
        <path
            d="M1720 1195 c0 -13 33 -85 39 -85 4 0 14 20 23 45 18 48 5 64 -13 18
l-11 -28 -10 28 c-8 22 -28 39 -28 22z" />
    </g>
</svg>