<svg version="1.1" xmlns="http://www.w3.org/2000/svg" xmlns:xlink="http://www.w3.org/1999/xlink"
    preserveAspectRatio="xMidYMid meet" viewBox="581 249 191 170">
    <g data-item-type="text" data-item="Business" id="logo__item--business" class="logo__item">
        <g class="logo__item__inner"
            transform="translate(594.4668524169922 278.05380096363217) scale(1 1) rotate(0 0 0)">
            <text data-part-id="logo__item--business" dy="0" dominant-baseline="auto"
                alignment-baseline="auto" font-family="Montserrat" font-size="32px" fill="#735955"
                letter-spacing="0" font-weight="bold" font-style="normal"
                data-font-family="Montserrat" data-font-weight="bold" data-font-style="normal"
                data-ttf-url="/builder_assets/fontsttf/font-montserrat-bold-normal.ttf">Pet First</text>
        </g>
    </g>
    <g data-item-type="text" id="logo__item--tagline_1" data-item="Tagline" class="logo__item">
        <g class="logo__item__inner"
            transform="translate(582.8823568725586 412.05380096363217) scale(1 1) rotate(0 0 0)">
            <text dy="0" dominant-baseline="auto" alignment-baseline="auto" font-family="Open Sans"
                font-size="18px" fill="#F79548" letter-spacing="1" data-font-family="Open Sans"
                data-font-weight="normal" data-font-style="normal" font-weight="normal"
                font-style="normal"
                data-ttf-url="/builder_assets/fontsttf/font-open-sans-normal-normal.ttf"
                data-part-id="logo__item--tagline_1__0">Pet alway come first</text>
        </g>
    </g>
    <g data-item-type="image" data-item="Image" data-logo-item="" id="logo__item--logo_0"
        class="logo__item">
        <g class="logo__item__inner"
            transform="translate(595.8134545851697 270.074) scale(0.8711097956874287 0.8711097956874287) rotate(0 0 0)">

            <g>
                <path fill="#735955"
                    d="M143.5,81.8c-9.6-42.7-42.7-46.5-43-46.5l0,0.1c-1.4-0.5-3-0.8-4.6-1.1c0.5-0.6,0.9-1.3,1.4-1.9l2.2-2.9   l-3.5-1c-0.4-0.1-9.5-2.6-18.2,4.8c-5.7-0.2-33.3,0.1-36.3,27l-1.6,12.1c-2.7,18.2-5.4,36.9,4,48c4.9,5.8,12.4,8.7,23,8.9   c14.2,0.2,25.4-0.2,34.1-2.3c6.8-1.1,12.4-4.1,15.7-8.5c0.4-0.6,0.8-1.1,1.1-1.7c1.2-1.8,2.3-3.7,3-5.9c5-0.5,10.4-1.9,14.7-4.8   C140.9,102.7,146.7,95.6,143.5,81.8z M47.5,117.3c-4.6-5.4-5.7-13.7-5.3-23c45.5-19.2,35.6-51.6,19-47.9   c-13.6,3.1-15.5,19.2-15.5,19.2l-0.4,2.5l1-7.1c2.8-25.1,30.8-22.7,32-22.6l1.1,0.1l0.8-0.8c3.8-3.5,7.6-4.5,10.4-4.6   C89.1,35.4,89,36,89,36.5V39h2.6c21.1,0,23.9,20.9,26,55.3c0.1,2.3,0.1,4.4,0,6.3c-1.3-1.9-3.2-3.1-5.6-3.5c-4.6-0.7-10,1.5-13,5.4   c-2.4,3.1-2.8,6.8-1.1,10.3c1.2,2.6,1.4,4.8,0.6,6.7c-0.9,2-2.9,3.2-4.2,3.8c-3.8,0.6-8,0.9-12.8,1c13.8-7.1,14.8-22.5,13.1-23.9   c-17.3-8.7-29.1,2.3-29.1,2.3c0.6,13.3,12.5,20.3,15,21.6c-4.2,0.1-8.8,0.1-13.7,0C57.8,124.3,51.5,122,47.5,117.3z M109.3,109.4   c1.2,8.1-2.7,11.7-5,13.1c-1.3,0.4-2.6,0.7-4,0.9c0.6-0.7,1.2-1.4,1.6-2.3c0.6-1.2,0.9-2.6,0.9-4c0-1.8-0.5-3.8-1.5-5.8   c-0.5-1-0.6-1.9-0.6-2.7c0-1.6,0.7-2.9,1.4-3.8c2.1-2.8,6.2-4.5,9.4-4c1.9,0.3,3.2,1.4,3.8,3.2c0.6,1.7,0.8,3.3,0.8,4.9   c0,2.7-0.8,5.3-2.5,7.5c-1.3,1.7-3,3.1-5,4.3C116.3,113.1,109.8,99.6,109.3,109.4z M80.8,103.4c0-1.3,2.1-2.3,4.7-2.3   c2.6,0,4.7,1,4.7,2.3c0,1.3-2.1,2.3-4.7,2.3C82.9,105.7,80.8,104.7,80.8,103.4z M77.5,103.4c0,0.6-0.4,1-0.8,1   c-0.5,0-0.8-0.5-0.8-1c0-0.6,0.4-1,0.8-1C77.2,102.4,77.5,102.8,77.5,103.4z"
                    data-part-id="logo__item--logo_0__0"></path>
                <path fill="#F79548" enable-background="new"
                    d="M80.6,124.4c-2.5-1.3-14.5-8.3-15-21.6c0,0,11.8-10.9,29.1-2.3   c1.6,1.4,0.6,16.8-13.1,23.9c4.7-0.2,9-0.5,12.8-1c1.3-0.6,3.3-1.8,4.2-3.8c0.8-1.8,0.6-4.1-0.6-6.7c-1.7-3.5-1.3-7.2,1.1-10.3   c2.9-3.9,8.4-6.2,13-5.4c2.4,0.4,4.4,1.6,5.6,3.5c0.1-2,0.1-4.1,0-6.3c-2.1-34.4-4.9-55.3-26-55.3H89v-2.5c0-0.6,0.1-1.1,1.6-3.4   c-2.8,0.2-6.6,1.1-10.4,4.6l-0.8,0.8l-1.1-0.1c-1.2-0.1-29.2-2.5-32,22.6l-1,7.1l0.4-2.5c0,0,1.9-16.1,15.5-19.2   c16.6-3.7,26.5,28.7-19,47.9c-0.4,9.3,0.6,17.5,5.3,23c3.9,4.6,10.3,7,19.3,7.1C71.8,124.5,76.4,124.5,80.6,124.4z M102.3,53.2   l-0.2,1.4c0,0-1.4-4.1-4.5-5.4C94.4,48.1,101.7,45.8,102.3,53.2z M89,62.4v-0.3c0-2.6,2.4-4.7,5-4.7s5,2.1,5,4.7v7   c0,2.6-2.4,4.7-5,4.7s-5-2.1-5-4.7v-2.3c-1-0.4-1.9-1.2-1.9-2.2C87.1,63.6,88,62.8,89,62.4z"
                    data-part-id="logo__item--logo_0__1"></path>
                <path fill="#735955"
                    d="M50.1,32.8c0,0-29.7-9.9-42.7,25.4c-5.6,21.1,22.3,22.3,26,6.8C37.1,49.5,41.4,34,50.1,32.8z"
                    data-part-id="logo__item--logo_0__2"></path>
                <path fill="#D8505C" enable-background="new"
                    d="M113.5,116.4c1.7-2.2,2.5-4.7,2.5-7.5c0-1.6-0.3-3.2-0.8-4.9   c-0.6-1.8-1.9-2.9-3.8-3.2c-3.2-0.5-7.3,1.2-9.4,4c-0.7,0.9-1.4,2.2-1.4,3.8c0,0.8,0.2,1.7,0.6,2.7c1,2.1,1.5,4,1.5,5.8   c0,1.4-0.3,2.7-0.9,4c-0.4,0.9-1,1.7-1.6,2.3c1.4-0.2,2.7-0.5,4-0.9c2.3-1.4,6.2-4.9,5-13.1c0.5-9.8,7,3.7-0.8,11.3   C110.5,119.5,112.3,118.1,113.5,116.4z M102.5,108c0-1.2,0.9-2.2,2.1-2.2c1.1,0,2.1,1,2.1,2.2c0,1.2-0.9,2.2-2.1,2.2   C103.4,110.2,102.5,109.2,102.5,108z"
                    data-part-id="logo__item--logo_0__3"></path>
                <path fill="#735955"
                    d="M93.8,64.6c0,1.4-1.5,2.5-3.3,2.5C90,67.1,90,67,89,66.8v2.3c0,2.6,2.4,4.7,5,4.7s5-2.1,5-4.7v-7   c0-2.6-2.4-4.7-5-4.7s-5,2.1-5,4.7v0.3c1-0.2,1-0.3,1.5-0.3C92.3,62.1,93.8,63.2,93.8,64.6z"
                    data-part-id="logo__item--logo_0__4"></path>
                <path fill="#735955"
                    d="M97.5,49.3c3.1,1.2,4.5,5.4,4.5,5.4l0.2-1.4C101.7,45.8,94.4,48.1,97.5,49.3z"
                    data-part-id="logo__item--logo_0__5"></path>
                <path fill="#FFFFFE"
                    d="M89.1,66.8c0.4,0.2,0.9,0.3,1.4,0.3c1.8,0,3.3-1.1,3.3-2.5c0-1.4-1.5-2.5-3.3-2.5c-0.5,0-1,0.1-1.4,0.3   c-1.1,0.4-1.9,1.2-1.9,2.2C87.2,65.6,88,66.4,89.1,66.8z"
                    data-part-id="logo__item--logo_0__6"></path>
                <path fill="#FFFFFE"
                    d="M104.6,110.2c1.1,0,2.1-1,2.1-2.2c0-1.2-0.9-2.2-2.1-2.2c-1.1,0-2.1,1-2.1,2.2   C102.5,109.2,103.4,110.2,104.6,110.2z"
                    data-part-id="logo__item--logo_0__7"></path>
                <ellipse fill="#FFFFFE" cx="85.6" cy="103.4" rx="4.7" ry="2.3"
                    data-part-id="logo__item--logo_0__8"></ellipse>
                <ellipse fill="#FFFFFE" cx="76.7" cy="103.4" rx="0.8" ry="1"
                    data-part-id="logo__item--logo_0__9"></ellipse>
                <path fill="#662E1A"
                    d="M136.8,53.2c2.5,5,5-5-11.1-12.4C125.6,40.9,134.3,48.3,136.8,53.2z"
                    data-part-id="logo__item--logo_0__10"></path>
                <path fill="#662E1A"
                    d="M45.1,127.6c-8.7-5-12.4-17.3-12.4-17.3C31.5,127.6,53.8,132.5,45.1,127.6z"
                    data-part-id="logo__item--logo_0__11"></path>
                <path fill="#662E1A" d="M82.3,21c-5,0-7.4,5-7.4,5S87.2,21,82.3,21z"
                    data-part-id="logo__item--logo_0__12"></path>
                <path fill="#662E1A" d="M119.4,121.4l-6.2,6.2C113.2,127.6,118.2,126.3,119.4,121.4z"
                    data-part-id="logo__item--logo_0__13"></path>
            </g>

        </g>
    </g>
</svg>